<svg xmlns="http://www.w3.org/2000/svg" viewBox="0 0 64 64" width="64" height="64">
  <path fill="#fff" d="M49.9 41.4V14.1H14.1v35.8h27.3z"/>
  <path fill="#666" d="M55 39.7L39.7 55H11.6C10.2 55 9 53.9 9 52.5v-41C9 10.1 10.1 9 11.5 9h40.9c1.4 0 2.5 1.2 2.5 2.6v28.1zm-5.1-25.6H14.1v35.8h20.4V37.1c0-1.3 1-2.4 2.3-2.5H49.9V14.1zm-2.1 25.6h-8.1v8.1l8.1-8.1z" />
  <g transform="matrix(4 0 0 4 256 0)">
    <circle fill="#4caf50" cx="-52" cy="4" r="4" />
    <path fill="#fff" d="M-49.2 3.3c-.1-.1-.2-.1-.3-.1h-1.8V1.4c0-.1 0-.2-.1-.3 0-.1-.1-.1-.2-.1h-.8c-.1 0-.2 0-.3.1-.1.1-.1.2-.1.3v1.8h-1.8c-.1 0-.2 0-.3.1-.1.1-.1.2-.1.3v.8c0 .1 0 .2.1.3.1.1.2.1.3.1h1.8v1.8c0 .1 0 .2.1.3.1.1.2.1.3.1h.8c.1 0 .2 0 .3-.1.1-.1.1-.2.1-.3V4.8h1.8c.1 0 .2 0 .3-.1.1-.1.1-.2.1-.3v-.8c0-.1-.1-.2-.2-.3z"/>
  </g>
</svg>
