<svg xmlns="http://www.w3.org/2000/svg" viewBox="0 0 64 64" width="64" height="64">
  <path fill="#fff" d="M14.1 22.6v27.3h35.8V14.1H22.6l-8.5 8.5z" />
  <path fill="#666" d="M9 24.3L24.3 9h28.1c1.4 0 2.6 1.1 2.6 2.5v41c0 1.4-1.1 2.5-2.5 2.5H11.6c-1.4 0-2.5-1.2-2.5-2.6L9 24.3zm5.1 25.6h35.8V14.1H29.5v12.8c0 1.3-1 2.4-2.3 2.5H14.1v20.5zm2.1-25.6h8.1v-8.1l-8.1 8.1z" />
  <g transform="matrix(4 0 0 4 256 0)">
    <circle fill="#4caf50" cx="-52" cy="4" r="4" />
    <path fill="#fff" d="M-49.2 3.3c-.1-.1-.2-.1-.3-.1h-1.8V1.4c0-.1 0-.2-.1-.3 0-.1-.1-.1-.2-.1h-.8c-.1 0-.2 0-.3.1-.1.1-.1.2-.1.3v1.8h-1.8c-.1 0-.2 0-.3.1-.1.1-.1.2-.1.3v.8c0 .1 0 .2.1.3.1.1.2.1.3.1h1.8v1.8c0 .1 0 .2.1.3.1.1.2.1.3.1h.8c.1 0 .2 0 .3-.1.1-.1.1-.2.1-.3V4.8h1.8c.1 0 .2 0 .3-.1.1-.1.1-.2.1-.3v-.8c0-.1-.1-.2-.2-.3z"/>
  </g>
</svg>
