<svg viewBox="0 0 512 512" xmlns="http://www.w3.org/2000/svg" width="64" height="64">
  <g transform="scale(0.96875)">
    <path d="M90 361v-90L45 61h422c24.814 0 45 20.186 45 45v300c0 24.814-20.186 45-45 45H45z" fill="#888" stroke="#888" stroke-width="32"/>
    <path d="M90 361v-90L45 61h422c24.814 0 45 20.186 45 45v300c0 24.814-20.186 45-45 45H45z" fill="#ffefe4"/>
    <path d="M90 271H15c-8.284 0-15-6.716-15-15V106c0-24.814 20.186-45 45-45s45 20.186 45 45zM45 451c-24.814 0-45-20.186-45-45v-30c0-8.284 6.716-15 15-15h75v45c0 24.814-20.186 45-45 45z" fill="#E4D4C9"/>
    <path d="M256 391H151c-8.291 0-15-6.709-15-15V256c0-8.291 6.709-15 15-15h105c8.291 0 15 6.709 15 15v120c0 8.291-6.709 15-15 15z" fill="#FFBE5F"/>
    <path d="M466 211H151c-8.291 0-15-6.709-15-15v-60c0-8.291 6.709-15 15-15h315c8.291 0 15 6.709 15 15v60c0 8.291-6.709 15-15 15z" fill="#FFBE5F"/>
    <g>
      <path d="M466 271H316c-8.291 0-15-6.709-15-15s6.709-15 15-15h150c8.291 0 15 6.709 15 15s-6.709 15-15 15z" fill="#FFBE5F"/>
      <path d="M466 331H316c-8.291 0-15-6.709-15-15s6.709-15 15-15h150c8.291 0 15 6.709 15 15s-6.709 15-15 15z" fill="#FFBE5F"/>
      <path d="M466 391H316c-8.291 0-15-6.709-15-15s6.709-15 15-15h150c8.291 0 15 6.709 15 15s-6.709 15-15 15z" fill="#FFBE5F"/>
    </g>
  </g>
  <g transform="scale(4) translate(64)"
    stroke-width=".5"><circle fill="#4caf50" cx="32" cy="32" r="32"/><path fill="#fff" d="M54.748 26.293c-.632-.633-1.4-.949-2.304-.949H38.352V11.252c0-.903-.316-1.671-.949-2.304C36.771 8.316 36.003 8 35.1 8h-6.503c-.903 0-1.671.316-2.303.948-.633.633-.949 1.4-.949 2.304v14.092H11.252c-.903 0-1.671.317-2.304.949-.632.632-.948 1.4-.948 2.303v6.505c0 .903.316 1.67.948 2.303.633.632 1.4.948 2.304.948h14.092v14.093c0 .903.316 1.672.948 2.304.633.632 1.4.948 2.304.948H35.1c.904 0 1.671-.316 2.304-.948.632-.633.948-1.4.948-2.304V38.352h14.092c.904 0 1.672-.316 2.304-.948.632-.632.948-1.4.948-2.303v-6.505c0-.903-.315-1.671-.948-2.303z"/></g>
</svg>
